ffmpeg started on 2016-12-12 at 10:22:57
Report written to "Output/theora/results/ffmpeg/Tsintel13000k.log"
Command line:
Tools/ffmpeg/ffmpeg -i Output/theora/encoded/sintel13000k.mkv -c:v rawvideo -pix_fmt yuv420p Output/theora/transcoded/sintel13000k.yuv
ffmpeg version N-82227-gdb23fde Copyright (c) 2000-2016 the FFmpeg developers
  built with gcc 5.4.0 (Ubuntu 5.4.0-6ubuntu1~16.04.2) 20160609
  configuration: --prefix=/home/jaroslav/ffmpeg_build --pkg-config-flags=--static --extra-cflags=-I/home/jaroslav/ffmpeg_build/include --extra-ldflags=-L/home/jaroslav/ffmpeg_build/lib --bindir=/home/jaroslav/bin --enable-gpl --enable-libass --enable-libfdk-aac --enable-libfreetype --enable-libmp3lame --enable-libopus --enable-libtheora --enable-libvorbis --enable-libvpx --enable-libx264 --enable-libx265 --enable-nvenc --enable-libmfx --enable-libxvid --enable-libgsm --enable-libopencore-amrnb --enable-version3 --enable-nonfree
  libavutil      55. 35.100 / 55. 35.100
  libavcodec     57. 66.101 / 57. 66.101
  libavformat    57. 57.100 / 57. 57.100
  libavdevice    57.  2.100 / 57.  2.100
  libavfilter     6. 66.100 /  6. 66.100
  libswscale      4.  3.100 /  4.  3.100
  libswresample   2.  4.100 /  2.  4.100
  libpostproc    54.  2.100 / 54.  2.100
Input #0, matroska,webm, from 'Output/theora/encoded/sintel13000k.mkv':
  Metadata:
    ENCODER         : Lavf57.57.100
  Duration: 00:00:20.83, start: 0.000000, bitrate: 13144 kb/s
    Stream #0:0: Video: theora, yuv420p(progressive), 4096x1744 [SAR 1:1 DAR 256:109], 24 fps, 24 tbr, 1k tbn, 24 tbc (default)
    Metadata:
      ENCODER         : Lavc57.66.101 libtheora
      DURATION        : 00:00:20.834000000
Output #0, rawvideo, to 'Output/theora/transcoded/sintel13000k.yuv':
  Metadata:
    encoder         : Lavf57.57.100
    Stream #0:0: Video: rawvideo (I420 / 0x30323449), yuv420p, 4096x1744 [SAR 1:1 DAR 256:109], q=2-31, 200 kb/s, 24 fps, 24 tbn, 24 tbc (default)
    Metadata:
      DURATION        : 00:00:20.834000000
      encoder         : Lavc57.66.101 rawvideo
Stream mapping:
  Stream #0:0 -> #0:0 (theora (native) -> rawvideo (native))
Press [q] to stop, [?] for help
frame=   20 fps=0.0 q=-0.0 size=  209280kB time=00:00:00.83 bitrate=2057306.9kbits/s speed=1.66x    frame=   41 fps= 40 q=-0.0 size=  429024kB time=00:00:01.70 bitrate=2057306.5kbits/s speed=1.67x    frame=   62 fps= 40 q=-0.0 size=  648768kB time=00:00:02.58 bitrate=2057306.4kbits/s speed=1.68x    frame=   83 fps= 40 q=-0.0 size=  868512kB time=00:00:03.45 bitrate=2057306.3kbits/s speed=1.68x    frame=  104 fps= 40 q=-0.0 size= 1088256kB time=00:00:04.33 bitrate=2057306.3kbits/s speed=1.68x    frame=  125 fps= 40 q=-0.0 size= 1308000kB time=00:00:05.20 bitrate=2057306.2kbits/s speed=1.68x    frame=  146 fps= 40 q=-0.0 size= 1527744kB time=00:00:06.08 bitrate=2057306.2kbits/s speed=1.68x    frame=  167 fps= 40 q=-0.0 size= 1747488kB time=00:00:06.95 bitrate=2057306.2kbits/s speed=1.68x    frame=  188 fps= 40 q=-0.0 size= 1967232kB time=00:00:07.83 bitrate=2057306.2kbits/s speed=1.68x    frame=  209 fps= 40 q=-0.0 size= 2186976kB time=00:00:08.70 bitrate=2057306.2kbits/s speed=1.68x    frame=  230 fps= 40 q=-0.0 size= 2406720kB time=00:00:09.58 bitrate=2057306.2kbits/s speed=1.68x    frame=  251 fps= 40 q=-0.0 size= 2626464kB time=00:00:10.45 bitrate=2057306.2kbits/s speed=1.68x    frame=  272 fps= 40 q=-0.0 size= 2846208kB time=00:00:11.33 bitrate=2057306.2kbits/s speed=1.68x    frame=  293 fps= 40 q=-0.0 size= 3065952kB time=00:00:12.20 bitrate=2057306.2kbits/s speed=1.68x    frame=  313 fps= 40 q=-0.0 size= 3275232kB time=00:00:13.04 bitrate=2057306.1kbits/s speed=1.68x    frame=  331 fps= 40 q=-0.0 size= 3463584kB time=00:00:13.79 bitrate=2057306.1kbits/s speed=1.66x    frame=  346 fps= 39 q=-0.0 size= 3620544kB time=00:00:14.41 bitrate=2057306.1kbits/s speed=1.62x    frame=  364 fps= 39 q=-0.0 size= 3808896kB time=00:00:15.16 bitrate=2057306.1kbits/s speed=1.62x    frame=  384 fps= 39 q=-0.0 size= 4018176kB time=00:00:16.00 bitrate=2057306.1kbits/s speed=1.62x    frame=  404 fps= 39 q=-0.0 size= 4227456kB time=00:00:16.83 bitrate=2057306.2kbits/s speed=1.62x    frame=  425 fps= 39 q=-0.0 size= 4447200kB time=00:00:17.70 bitrate=2057306.2kbits/s speed=1.62x    frame=  436 fps= 38 q=-0.0 size= 4562304kB time=00:00:18.16 bitrate=2057306.1kbits/s speed=1.59x    frame=  456 fps= 38 q=-0.0 size= 4771584kB time=00:00:19.00 bitrate=2057306.1kbits/s speed=1.59x    frame=  476 fps= 38 q=-0.0 size= 4980864kB time=00:00:19.83 bitrate=2057306.1kbits/s speed=1.59x    frame=  497 fps= 38 q=-0.0 size= 5200608kB time=00:00:20.70 bitrate=2057306.1kbits/s speed= 1.6x    frame=  500 fps= 38 q=-0.0 Lsize= 5232000kB time=00:00:20.83 bitrate=2057306.1kbits/s speed=1.59x    
video:5232000kB audio:0kB subtitle:0kB other streams:0kB global headers:0kB muxing overhead: 0.000000%
